<svg id="visual" viewBox="0 0 1920 1080" width="1920" height="1080" xmlns="http://www.w3.org/2000/svg" xmlns:xlink="http://www.w3.org/1999/xlink" version="1.1"><rect x="0" y="0" width="1920" height="1080" fill="#48222c"></rect><path d="M0 338L26.7 373.8C53.3 409.7 106.7 481.3 160 514C213.3 546.7 266.7 540.3 320 531.7C373.3 523 426.7 512 480 475.8C533.3 439.7 586.7 378.3 640 384.2C693.3 390 746.7 463 800 488.5C853.3 514 906.7 492 960 493.5C1013.3 495 1066.7 520 1120 528C1173.3 536 1226.7 527 1280 490.8C1333.3 454.7 1386.7 391.3 1440 366.3C1493.3 341.3 1546.7 354.7 1600 375C1653.3 395.3 1706.7 422.7 1760 424.2C1813.3 425.7 1866.7 401.3 1893.3 389.2L1920 377L1920 1081L1893.3 1081C1866.7 1081 1813.3 1081 1760 1081C1706.7 1081 1653.3 1081 1600 1081C1546.7 1081 1493.3 1081 1440 1081C1386.7 1081 1333.3 1081 1280 1081C1226.7 1081 1173.3 1081 1120 1081C1066.7 1081 1013.3 1081 960 1081C906.7 1081 853.3 1081 800 1081C746.7 1081 693.3 1081 640 1081C586.7 1081 533.3 1081 480 1081C426.7 1081 373.3 1081 320 1081C266.7 1081 213.3 1081 160 1081C106.7 1081 53.3 1081 26.7 1081L0 1081Z" fill="#a84a71"></path><path d="M0 575L26.7 573C53.3 571 106.7 567 160 571C213.3 575 266.7 587 320 573.2C373.3 559.3 426.7 519.7 480 513.8C533.3 508 586.7 536 640 543.2C693.3 550.3 746.7 536.7 800 549.3C853.3 562 906.7 601 960 621.5C1013.3 642 1066.7 644 1120 616.8C1173.3 589.7 1226.7 533.3 1280 527.2C1333.3 521 1386.7 565 1440 570.5C1493.3 576 1546.7 543 1600 541.3C1653.3 539.7 1706.7 569.3 1760 564.8C1813.3 560.3 1866.7 521.7 1893.3 502.3L1920 483L1920 1081L1893.3 1081C1866.7 1081 1813.3 1081 1760 1081C1706.7 1081 1653.3 1081 1600 1081C1546.7 1081 1493.3 1081 1440 1081C1386.7 1081 1333.3 1081 1280 1081C1226.7 1081 1173.3 1081 1120 1081C1066.7 1081 1013.3 1081 960 1081C906.7 1081 853.3 1081 800 1081C746.7 1081 693.3 1081 640 1081C586.7 1081 533.3 1081 480 1081C426.7 1081 373.3 1081 320 1081C266.7 1081 213.3 1081 160 1081C106.7 1081 53.3 1081 26.7 1081L0 1081Z" fill="#944567"></path><path d="M0 570L26.7 603C53.3 636 106.7 702 160 717C213.3 732 266.7 696 320 658.8C373.3 621.7 426.7 583.3 480 599.2C533.3 615 586.7 685 640 699C693.3 713 746.7 671 800 672.5C853.3 674 906.7 719 960 724.8C1013.3 730.7 1066.7 697.3 1120 687.5C1173.3 677.7 1226.7 691.3 1280 671C1333.3 650.7 1386.7 596.3 1440 582.3C1493.3 568.3 1546.7 594.7 1600 604.3C1653.3 614 1706.7 607 1760 611.8C1813.3 616.7 1866.7 633.3 1893.3 641.7L1920 650L1920 1081L1893.3 1081C1866.7 1081 1813.3 1081 1760 1081C1706.7 1081 1653.3 1081 1600 1081C1546.7 1081 1493.3 1081 1440 1081C1386.7 1081 1333.3 1081 1280 1081C1226.7 1081 1173.3 1081 1120 1081C1066.7 1081 1013.3 1081 960 1081C906.7 1081 853.3 1081 800 1081C746.7 1081 693.3 1081 640 1081C586.7 1081 533.3 1081 480 1081C426.7 1081 373.3 1081 320 1081C266.7 1081 213.3 1081 160 1081C106.7 1081 53.3 1081 26.7 1081L0 1081Z" fill="#803f5d"></path><path d="M0 687L26.7 685.3C53.3 683.7 106.7 680.3 160 705.5C213.3 730.7 266.7 784.3 320 781.5C373.3 778.7 426.7 719.3 480 710.3C533.3 701.3 586.7 742.7 640 750.2C693.3 757.7 746.7 731.3 800 713C853.3 694.7 906.7 684.3 960 707.3C1013.3 730.3 1066.7 786.7 1120 802.5C1173.3 818.3 1226.7 793.7 1280 783.7C1333.3 773.7 1386.7 778.3 1440 765.2C1493.3 752 1546.7 721 1600 726.7C1653.3 732.3 1706.7 774.7 1760 783.2C1813.3 791.7 1866.7 766.3 1893.3 753.7L1920 741L1920 1081L1893.3 1081C1866.7 1081 1813.3 1081 1760 1081C1706.7 1081 1653.3 1081 1600 1081C1546.7 1081 1493.3 1081 1440 1081C1386.7 1081 1333.3 1081 1280 1081C1226.7 1081 1173.3 1081 1120 1081C1066.7 1081 1013.3 1081 960 1081C906.7 1081 853.3 1081 800 1081C746.7 1081 693.3 1081 640 1081C586.7 1081 533.3 1081 480 1081C426.7 1081 373.3 1081 320 1081C266.7 1081 213.3 1081 160 1081C106.7 1081 53.3 1081 26.7 1081L0 1081Z" fill="#6d3953"></path><path d="M0 942L26.7 931C53.3 920 106.7 898 160 896.8C213.3 895.7 266.7 915.3 320 912C373.3 908.7 426.7 882.3 480 880.7C533.3 879 586.7 902 640 908.3C693.3 914.7 746.7 904.3 800 891.7C853.3 879 906.7 864 960 859.3C1013.3 854.7 1066.7 860.3 1120 875C1173.3 889.7 1226.7 913.3 1280 925C1333.3 936.7 1386.7 936.3 1440 932.7C1493.3 929 1546.7 922 1600 914.3C1653.3 906.7 1706.7 898.3 1760 893C1813.3 887.7 1866.7 885.3 1893.3 884.2L1920 883L1920 1081L1893.3 1081C1866.7 1081 1813.3 1081 1760 1081C1706.7 1081 1653.3 1081 1600 1081C1546.7 1081 1493.3 1081 1440 1081C1386.7 1081 1333.3 1081 1280 1081C1226.7 1081 1173.3 1081 1120 1081C1066.7 1081 1013.3 1081 960 1081C906.7 1081 853.3 1081 800 1081C746.7 1081 693.3 1081 640 1081C586.7 1081 533.3 1081 480 1081C426.7 1081 373.3 1081 320 1081C266.7 1081 213.3 1081 160 1081C106.7 1081 53.3 1081 26.7 1081L0 1081Z" fill="#5a3347"></path><path d="M0 1015L26.7 999.3C53.3 983.7 106.7 952.3 160 951.8C213.3 951.3 266.7 981.7 320 990C373.3 998.3 426.7 984.7 480 965.5C533.3 946.3 586.7 921.7 640 918.3C693.3 915 746.7 933 800 950.8C853.3 968.7 906.7 986.3 960 984.5C1013.3 982.7 1066.7 961.3 1120 945.8C1173.3 930.3 1226.7 920.7 1280 913.5C1333.3 906.3 1386.7 901.7 1440 897.8C1493.3 894 1546.7 891 1600 891.5C1653.3 892 1706.7 896 1760 902.8C1813.3 909.7 1866.7 919.3 1893.3 924.2L1920 929L1920 1081L1893.3 1081C1866.7 1081 1813.3 1081 1760 1081C1706.7 1081 1653.3 1081 1600 1081C1546.7 1081 1493.3 1081 1440 1081C1386.7 1081 1333.3 1081 1280 1081C1226.7 1081 1173.3 1081 1120 1081C1066.7 1081 1013.3 1081 960 1081C906.7 1081 853.3 1081 800 1081C746.7 1081 693.3 1081 640 1081C586.7 1081 533.3 1081 480 1081C426.7 1081 373.3 1081 320 1081C266.7 1081 213.3 1081 160 1081C106.7 1081 53.3 1081 26.7 1081L0 1081Z" fill="#492d3c"></path></svg>